<svg xmlns="http://www.w3.org/2000/svg" viewBox="-0.0417926 1.79355 32.08 28.41">
	<path d="M31.517,17.778c0.01-3.572,0.096-7.145,0.195-10.716c0.041-1.46,0.486-3.102-0.434-4.323    c-1.303-1.729-9.574-0.602-11.514-0.375c-0.916,0.108-1.693,1.266-2.215,1.828c-2.395,2.578-5.584,3.156-8.858,3.252    C8.408,6.559,9,5.097,7.648,5.101c-0.74,0.003-1.49,0.101-2.231,0.135C4.496,5.278,3.58,5.159,2.674,5.354    c-0.119,0.025-0.41,0.15-0.408,0.312c0.01,0.613-0.047,1.216-0.139,1.816c-1.25,0.182-2.228,0.754-2.166,2.442    c0.002,0.023,0.016,0.039,0.02,0.059c-0.002,0.021-0.016,0.04-0.016,0.062c0.176,3.875,0.352,7.703,0.268,11.583    c-0.027,1.229-0.531,5.114,0.355,6.171c0.393,0.469,0.957,0.802,1.619,1.048c0.008,0.427,0.031,0.79,0.062,1.225    c0.01,0.147,0.334,0.13,0.414,0.13c7.584,0.002,15.156,0.025,22.74-0.05c1.488-0.015,3.447,0.233,3.783-1.38    c0.41-0.076,0.805-0.178,1.154-0.346C33.279,27.026,31.51,20.376,31.517,17.778z M7.5,5.895c0.088,0.127,0.129,0.331,0.125,0.668    C7.623,6.87,7.639,7.165,7.697,7.459c-0.107,0-0.213,0.002-0.322,0.002C7.439,6.94,7.473,6.418,7.5,5.895z M6.412,5.738    c0.027-0.002,0.059,0,0.086-0.002c0.025-0.002,0.047-0.003,0.07-0.004C6.543,6.306,6.514,6.881,6.451,7.454    C6.41,7.452,6.373,7.452,6.332,7.452C6.35,6.877,6.412,6.309,6.412,5.738z M5.418,5.749c0.024,0,0.049,0,0.072,0.001    C5.48,5.776,5.467,5.801,5.467,5.829C5.482,6.367,5.414,6.9,5.389,7.434c-0.039,0-0.08,0-0.121-0.002    C5.305,6.87,5.365,6.309,5.418,5.749z M4.377,5.742c0.033,0,0.068-0.002,0.1-0.002C4.428,6.298,4.367,6.855,4.328,7.414    C4.291,7.413,4.252,7.412,4.217,7.412C4.244,6.852,4.351,6.301,4.377,5.742z M3.209,5.817c0.09-0.012,0.176-0.026,0.269-0.034    C3.453,5.817,3.437,5.852,3.437,5.891c-0.014,0.508-0.1,1.008-0.147,1.512c-0.074,0-0.144,0.002-0.215,0.002    C3.158,6.879,3.207,6.351,3.209,5.817z M6.396,28.079c-0.281,0.002-0.561,0.008-0.842,0.006c-4.441-0.032-3.922-3.056-3.887-6.6    c0.025-2.508-0.023-4.98-0.105-7.461c1.66,0.07,3.324,0.109,4.988,0.122C6.088,18.685,6.391,23.479,6.396,28.079z M13.158,27.928    c-1.781,0.021-3.555,0.097-5.334,0.135c0.01-4.582-0.297-9.366,0.123-13.914c0.717,0,1.434,0,2.152-0.006    c-0.879,1.208-1.35,2.793-1.4,4.664c-0.106,3.9,3.613,6.653,7.303,6.467c3.928-0.198,7.002-2.94,7.271-6.943    c0.115-1.722-0.615-3.185-1.76-4.31c0.75-0.002,1.5,0.002,2.25,0.008c-0.193,4.556,0.018,9.103,0.088,13.656    C20.289,27.743,16.715,27.887,13.158,27.928z M15.299,12.629c5.902,0.287,9.168,7.654,3.354,11.001    c-3.379,1.946-7.537-0.542-8.402-3.958C9.342,16.088,11.691,12.836,15.299,12.629z M27.523,27.663    c-0.746-0.005-1.492,0.006-2.238,0.013c-0.06-4.546-0.271-9.086-0.103-13.633c1.67,0.027,3.338,0.077,5.002,0.168    c0.01,0.002,0.021-0.002,0.031-0.002c-0.062,0.72-0.113,1.381-0.121,1.927c-0.022,1.754-0.02,3.508,0.006,5.262    C30.135,23.843,31.545,27.69,27.523,27.663z M30.283,13.421c-3.221-0.163-6.451-0.188-9.684-0.163    c-1.455-1.047-3.285-1.659-4.932-1.712c-0.018-0.001-0.035,0.007-0.055,0.008c-0.045-0.004-0.076-0.016-0.129-0.014    c-2.008,0.093-3.58,0.743-4.707,1.831c-3.086,0.024-6.168,0.004-9.24-0.14c-0.041-1.148-0.088-2.296-0.141-3.452    C1.32,7.272,14.642,9.204,16.883,6.621c0.924-1.068,1.857-2.122,2.818-3.159c1.092-1.177,5.477-0.421,6.951-0.373    c0.848,0.026,1.502,0.278,2.029,0.665c-1.742-0.312-3.697-0.03-5.443-0.033c-0.275-0.023-0.707,0.122-0.723,0.308    c-0.088,1.091-0.106,2.239-0.043,3.333c0.07,1.246,2.486,0.852,3.291,0.858c1.08,0.007,2.383,0.219,3.328-0.422    c0.301-0.204,0.275-0.707,0.281-1.013c0.018-0.797-0.029-1.592-0.035-2.39C30.877,6.4,30.562,10.327,30.283,13.421z M27.338,4.155    c0.178,0.004,0.351-0.003,0.529,0.014c0.678,0.055,0.512,0.857,0.525,1.254c0.033,0.898,0.508,2.393-0.879,2.298    c-0.025-0.002-0.06-0.001-0.09-0.002c0.008-0.023,0.021-0.043,0.021-0.068C27.437,6.484,27.369,5.321,27.338,4.155z M26.492,7.758    C26.135,7.78,25.736,7.8,25.346,7.8c0.02-0.027,0.035-0.055,0.035-0.086c0-1.178,0-2.356,0-3.534    c0.33-0.006,0.662-0.014,0.994-0.025c0.029,1.193,0.104,2.387,0.109,3.58C26.484,7.745,26.49,7.749,26.492,7.758z M24.65,4.196    c-0.125,0.057-0.221,0.131-0.221,0.223c0,1.107,0,2.215,0,3.321c-0.533-0.083-0.939-0.263-1.006-0.633    c-0.158-0.878-0.065-1.982,0.014-2.911C23.842,4.198,24.246,4.2,24.65,4.196z" fill="#000000"/>
</svg>